<svg width="284" height="232" xmlns="http://www.w3.org/2000/svg">
 <path d="m284 232h-284v-232h284zm-128-148 30.75 53.23c34.21 59.21 37.39 63.77 46.65 66.92 15.7 5.35 29.58-8.43 25.95-25.77-0.87-4.18-10.37-21.45-41.69-75.83-44.22-76.77-44.08-76.56-58.66-79.55l-3.44-0.15c-1.89-0.08-4.14 0.15-6.56 1.15l-2.75 0.5c-8.46 1.52-8.44 1.49-52.35 78.22-45.56 79.59-44.82 78.01-41.29 88.28 4.21 12.26 15.86 17.59 27.71 12.68 8.5-3.53 6.14-0.04 75.68-119.68zm-28.083 85.029a24.508 24.508 0 0 0 49.015 0 24.508 24.508 0 0 0-49.015 0" fill="rgba(0,0,0,0)"/>
 <path d="m149 24-3.75 3.91c-7.41 7.71-9.88 18.74-4.25 29.09l2 4 3.4 5.75c1.87 3.16 4.8 8.11 9.6 16.25v1c-69.54 119.64-67.18 116.15-75.68 119.68-11.85 4.91-23.5-0.42-27.71-12.68-3.53-10.27-4.27-8.69 41.29-88.28 43.91-76.73 43.89-76.7 52.35-78.22z" fill="#155dfc"/>
 <path d="m156 84v-1l8.25-15.25c12-22.19 11.97-32.58-5.25-44.75 14.58 2.99 14.44 2.78 58.66 79.55 31.32 54.38 40.82 71.65 41.69 75.83 3.63 17.34-10.25 31.12-25.95 25.77-9.26-3.15-12.44-7.71-46.65-66.92z" fill="#9810fa"/>
 <path d="m143 61v-1.75c0-0.96-0.45-1.86-2-2.25-5.63-10.35-3.16-21.38 4.25-29.09l3.75-3.91c2.42-1 4.67-1.23 6.56-1.15l3.44 0.15c17.22 12.17 17.25 22.56 5.25 44.75l-8.25 15.25c-4.8-8.14-7.73-13.09-9.6-16.25z" fill="#7425FB"/>
 <path d="m127.92 169.03a24.508 24.508 0 0 1 49.015 0 24.508 24.508 0 0 1-49.015 0m31.083 18.971 4.75-2.8c3.97-2.34 5.12-3.74 9.25-14.2l0.71-1.51c3.08-6.58-7.6-19.61-17.85-21.78-17.24-3.64-30.63 18.58-15.86 37.29l4.25 1.58c2.34 0.86 5.71 1.76 10.75 2.42z" fill="#155dfc"/>
 <path d="m140 185-2.75-8.05c-3.45-10.11-2.27-16 4.38-21.83 9.74-8.53 28.61-1.97 31.37 15.88-4.13 10.46-5.28 11.86-9.25 14.2l-4.75 2.8-4 1c-5.04-0.66-8.41-1.56-10.75-2.42zm-5.106-15.9a17.347 17.347 0 0 0 34.693 0 17.347 17.347 0 0 0-34.693 0" fill="#2165f6ff"/>
 <path d="m173 171c-2.76-17.85-21.63-24.41-31.37-15.88-6.65 5.83-7.83 11.72-4.38 21.83l2.75 8.05c-14.77-18.71-1.38-40.93 15.86-37.29 10.25 2.17 20.93 15.2 17.85 21.78z" fill="#2a69f0ff"/>
 <path d="m134.89 169.1a17.347 17.347 0 0 1 34.693 0 17.347 17.347 0 0 1-34.693 0m26.106-12.1-0.86-0.62c-0.48-0.35-1.22-0.06-1.65 0.63-0.57 0.93-1 0.96-2.49-1.01l-0.47-0.75c-2.94-4.75-15.66 3.58-17.09 11.2-0.66 3.52 0.97 7.94 3.56 6.55l1 2-0.75 0.62c-1.63 1.36 2.79 5.4 7.2 6.58 12.76 3.41 23.17-13.06 11.55-25.2z" fill="#b05cecff"/>
 <path d="m143 175-1-2-0.69-2.53c-1.66-6.08 3.78-12.68 14.69-14.47 1.49 1.97 1.92 1.94 2.49 1.01 0.43-0.69 1.17-0.98 1.65-0.63l0.86 0.62-0.51 0.96c-0.28 0.52 0.39 2.43 1.49 4.25 6.63 10.87-5 22.45-18.98 12.79zm11.46-14.7c-9.07-1.47-13.95 9.5-6.5 14.61 1.67 1.15 3.6 2.09 4.29 2.09 0.69-0.01 2.72-0.91 4.53-2 6.28-3.83 4.74-13.55-2.32-14.7" fill="#ac4feeff"/>
 <path d="m154.46 160.3c7.06 1.15 8.6 10.87 2.32 14.7-1.81 1.09-3.84 1.99-4.53 2-0.69 0-2.62-0.94-4.29-2.09-7.45-5.11-2.57-16.08 6.5-14.61m1.64 4.8c-4.3-4.3-11.47 1.12-7.73 5.84 0.92 1.16 2.57 1.95 3.78 1.81 1.18-0.14 3.03-1.44 4.11-2.89 1.96-2.63 1.96-2.64-0.16-4.76" fill="#a12df3ff"/>
 <path d="m143 175c13.98 9.66 25.61-1.92 18.98-12.79-1.1-1.82-1.77-3.73-1.49-4.25l0.51-0.96c11.62 12.14 1.21 28.61-11.55 25.2-4.41-1.18-8.83-5.22-7.2-6.58z" fill="#aa52e8ff"/>
 <path d="m156.1 165.1c2.12 2.12 2.12 2.13 0.16 4.76-1.08 1.45-2.93 2.75-4.11 2.89-1.21 0.14-2.86-0.65-3.78-1.81-3.74-4.72 3.43-10.14 7.73-5.84" fill="#9810fa"/>
 <path d="m156 156c-10.91 1.79-16.35 8.39-14.69 14.47l0.69 2.53c-2.59 1.39-4.22-3.03-3.56-6.55 1.43-7.62 14.15-15.95 17.09-11.2z" fill="#b676e4ff"/>
 <path d="m141 57c1.55 0.39 2 1.29 2 2.25v1.75z" fill="#7425FB"/>
</svg>